Coordinates
version=1
nRows=19
nColumns=36
inDegrees=yes

Units are S.I. units (second, meters, Newtons, ...)
If the header above contains a line with 'inDegrees', this indicates whether rotational values are in degrees (yes) or radians (no).

endheader
time	pelvis_tilt	pelvis_list	pelvis_rotation	pelvis_tx	pelvis_ty	pelvis_tz	hip_flexion_r	hip_adduction_r	hip_rotation_r	knee_angle_r	knee_angle_r_beta	ankle_angle_r	subtalar_angle_r	mtp_angle_r	hip_flexion_l	hip_adduction_l	hip_rotation_l	knee_angle_l	knee_angle_l_beta	ankle_angle_l	subtalar_angle_l	mtp_angle_l	lumbar_extension	lumbar_bending	lumbar_rotation	arm_flex_r	arm_add_r	arm_rot_r	elbow_flex_r	pro_sup_r	arm_flex_l	arm_add_l	arm_rot_l	elbow_flex_l	pro_sup_l
     29.81666670	      8.26628751	      4.29796468	    176.40557741	      0.41039992	      0.91780311	      0.70257504	      9.34183056	      7.46505799	      4.48796993	     18.50710256	      0.32300987	     16.31791501	     -1.05318061	     -7.49999987	     32.21996858	     -8.85816184	     -9.34816050	     15.19965493	      0.26528402	     -5.05195396	     -5.20534257	     -7.49999987	     -8.02923888	      5.61780539	      9.95864207	     25.51786984	    -18.74586752	      1.09686160	     34.42870277	     83.08266368	     10.50892687	     -6.27511170	     -4.21695370	      9.27966257	     88.39257803
     29.83333330	      8.55893736	      5.00565404	    175.79734908	      0.41131707	      0.91399616	      0.70473542	      7.85054466	      8.04142627	      4.61912961	     17.89718324	      0.31236477	     17.04189738	     -0.96903897	     -7.49999987	     32.35220286	     -9.64916245	     -9.06519553	     12.17400983	      0.21247655	     -5.26026443	     -4.42484401	     -7.49999987	     -7.12722127	      6.62085426	     10.52261554	     25.52413438	    -18.81843997	      1.06898000	     34.16535333	     83.05556446	      9.63425606	     -5.79524476	     -4.36202755	      9.09855576	     88.45059251
     29.85000000	      8.59362132	      5.54644259	    175.28561029	      0.41228045	      0.90846544	      0.70789830	      6.36977857	      8.38641832	      4.90489665	     17.71429462	      0.30917277	     17.74755030	     -1.15959097	     -7.49999987	     32.36754500	    -10.30339668	     -8.70174484	     10.09342196	      0.17616345	     -5.37305661	     -3.59393972	     -7.49999987	     -6.64781938	      7.28090439	     11.26052372	     25.53396746	    -18.90185375	      1.05356208	     33.41763133	     83.03737592	      9.24258622	     -5.30175942	     -4.62086525	      8.87689548	     88.56476580
     29.86666670	      8.58948812	      5.95978456	    174.89143193	      0.41065203	      0.90342465	      0.71194902	      5.19680226	      8.56863460	      5.24214125	     18.26583041	      0.31879888	     18.66933597	     -1.60326472	     -7.49999987	     32.53020989	    -10.77863133	     -7.98395989	      9.38463875	      0.16379285	     -5.31414575	     -3.20043772	     -7.49999987	     -6.25775657	      7.83042607	     11.65497250	     25.32078432	    -18.83114450	      1.10772691	     33.17484876	     83.01817474	      8.82158672	     -4.87107969	     -4.67267572	      8.96448064	     88.58074544
     29.88333330	      8.35942873	      6.08646998	    174.61600309	      0.40670654	      0.89980969	      0.71566612	      3.94703232	      8.46826780	      5.90249275	     19.42969025	      0.33911207	     19.55971468	     -2.66524021	     -7.49999987	     32.43714183	    -10.89241314	     -7.20778338	      9.65553183	      0.16852082	     -5.36958670	     -3.61157503	     -7.49999987	     -5.91312073	      7.91948157	     12.35753514	     24.70916339	    -18.88934717	      1.36950840	     32.14781386	     83.19090931	      8.91697106	     -4.39454669	     -4.88007105	      8.77645113	     89.02933441
     29.90000000	      7.93438654	      5.94061410	    174.73731537	      0.40116114	      0.89714658	      0.71976092	      2.70411621	      7.94306702	      5.91436236	     21.38479570	      0.37323509	     20.36275055	     -3.54887626	     -7.49999987	     32.08258795	    -10.48346514	     -6.41352191	     10.85641770	      0.18948023	     -4.97039844	     -4.10041572	     -7.49999987	     -5.62923347	      7.73357619	     12.29692793	     23.78168238	    -18.58343936	      1.50291748	     31.84621574	     83.20815591	      8.72006996	     -4.11444069	     -4.86902192	      9.07170226	     89.09242158
     29.91666670	      7.25071726	      5.58825932	    175.02314310	      0.39517797	      0.89507999	      0.72440419	      1.72623877	      7.06395389	      5.46880640	     24.56193724	      0.42868668	     20.65159970	     -4.73747720	     -7.49999987	     31.35728527	     -9.73753654	     -5.66353601	     12.66093318	      0.22097497	     -4.85628004	     -5.08352253	     -7.49999987	     -5.55822768	      7.31938095	     12.16113417	     22.70111573	    -18.20787219	      1.58063102	     31.35566127	     83.28166169	      8.70403458	     -3.84038732	     -4.82337993	      9.14399061	     89.24405672
     29.93333330	      6.87716040	      5.03339749	    175.27496187	      0.39094224	      0.89319300	      0.72896200	      2.03334364	      5.92417767	      4.85162817	     29.49901634	      0.51485496	     20.63635563	     -6.06253215	     -7.49999987	     30.89472093	     -8.60323463	     -3.98987585	     14.55815904	      0.25408781	     -6.16034151	     -8.64479624	     -7.49999987	     -5.12239909	      6.71084230	     12.16375641	     21.22787520	    -17.59830613	      0.16758877	     30.84302210	     84.46432427	      8.69784471	     -3.64943640	     -3.92982232	      9.13688547	     91.83197915
     29.95000000	      6.63363483	      4.52440736	    175.51001455	      0.38973702	      0.89249877	      0.73314566	      3.50724588	      4.74555025	      3.78177581	     36.00514408	      0.62840831	     20.15597869	     -7.04517015	     -7.49999987	     30.72625790	     -7.58893908	     -3.22878388	     16.62835766	      0.29021959	     -6.44358705	     -9.97078614	     -7.49999987	     -4.87595102	      6.16851250	     11.66672999	     20.16960208	    -16.92735794	     -0.68832669	     30.30807954	     84.78274794	      8.51874689	     -3.50763207	     -4.11925530	      9.51947105	     92.38151064
     29.96666670	      6.43917610	      3.94627688	    175.53432099	      0.38901868	      0.89226267	      0.73682921	      5.65070614	      3.56368973	      3.15357349	     43.07797368	      0.75185248	     18.61981388	     -8.00519740	     -7.49999987	     30.42397902	     -6.57066860	     -3.16587673	     18.05342125	      0.31509164	     -6.72390041	    -10.43999626	     -7.49999987	     -4.84183062	      5.50085120	     11.06259669	     19.16008261	    -16.28189039	     -0.96312092	     29.89836291	     84.97301018	      8.36799539	     -3.44107417	     -4.22584887	      9.97810574	     92.62552686
     29.98333330	      6.27327289	      3.46016996	    175.53132050	      0.38587398	      0.89067457	      0.73942338	      7.88162256	      2.57445799	      2.79423973	     49.67931246	      0.86706757	     16.08043415	     -8.68969904	     -7.49999987	     29.86240000	     -5.62327354	     -3.41883772	     18.80863049	      0.32827253	     -7.06440464	    -10.57248853	     -7.49999987	     -4.78241906	      4.90321343	     10.20880455	     17.95830399	    -15.49207205	     -1.29095807	     29.34366118	     85.05381157	      8.15599077	     -3.47154637	     -4.34648152	     10.48822114	     92.69145526
     30.00000000	      6.07122120	      2.99394553	    175.48904315	      0.38145643	      0.88888804	      0.74060956	     10.10756814	      1.69433946	      2.70144792	     55.80091840	      0.97390975	     12.58931798	     -9.28641580	     -7.49999987	     28.85643610	     -4.73337977	     -3.86206058	     19.01060111	      0.33179758	     -7.43968762	    -10.49118274	     -7.49999987	     -4.56200410	      4.26533410	      9.19376568	     16.57384521	    -14.53330782	     -1.71228151	     28.40684846	     85.15144516	      7.91077396	     -3.54452768	     -4.48648431	     10.82214751	     92.77739218
     30.01666670	      5.78375713	      2.66726393	    175.55505222	      0.37948706	      0.88828067	      0.74187709	     12.57065507	      0.92609420	      2.54654029	     61.80424589	      1.07868758	      8.64210658	     -9.84628280	     -7.49999987	     27.61388613	     -3.99063056	     -4.10882543	     19.18873726	      0.33490664	     -7.48742928	    -10.25495991	     -7.49999987	     -4.44187116	      3.69637162	      8.01745588	     15.22563054	    -13.46696532	     -2.35509974	     27.09613801	     85.26900773	      7.83449831	     -3.68219242	     -4.60698120	     11.12101306	     92.93627267
     30.03333330	      5.06395534	      2.68948728	    175.87924245	      0.38029981	      0.88943591	      0.74486419	     14.88707778	      0.22571796	      1.97483916	     67.43900794	      1.17703273	      5.12453501	     -9.65149348	     -7.49999987	     26.02366537	     -3.47247311	     -3.73831735	     19.64910668	      0.34294161	     -6.81885956	    -10.09087122	     -7.49999987	     -5.33664634	      3.62030723	      6.75952069	     13.78500666	    -12.83406597	     -2.51844363	     26.38051883	     85.23498312	      8.38553326	     -3.75257938	     -4.59220647	     11.56778493	     92.91982238
     30.05000000	      5.18030203	      2.20009418	    175.68943785	      0.38068965	      0.89042969	      0.74748034	     18.69710612	     -0.55403959	      2.42925058	     73.18081317	      1.27724614	      2.35225759	    -11.50965306	     -7.49999987	     25.25674599	     -2.87694261	     -4.19455000	     20.19921532	      0.35254281	     -5.54672373	     -9.48684574	     -7.49999987	     -5.18258907	      2.82686243	      5.39526459	     12.74037966	    -11.44038712	     -3.63094840	     24.46622874	     85.26703519	      8.44481667	     -4.28589762	     -4.44238607	     12.09894141	     93.25303131
     30.06666670	      5.16726506	      1.90695435	    175.61487071	      0.38068574	      0.89328877	      0.75082495	     22.14154082	     -1.03213267	      2.91145519	     77.62466032	      1.35480590	      1.33316781	    -12.83720639	     -7.49999987	     24.50094761	     -2.48805439	     -4.12053156	     21.33704709	      0.37240172	     -3.60812024	     -9.08394994	     -7.49999987	     -5.69071802	      2.37477781	      4.42131434	     11.46030586	    -10.25086422	     -7.27975598	     23.58005568	     87.95391278	      8.97065306	     -4.75592706	     -4.08049673	     12.86257339	     95.94237487
     30.08333330	      5.21951781	      1.34386088	    175.36182147	      0.38090099	      0.89801767	      0.75361900	     25.37666858	     -1.43914412	      3.79795110	     80.59991547	      1.40673390	      1.54187499	    -14.17532189	     -7.49999987	     23.55229666	     -1.96098803	     -4.02821057	     22.41310913	      0.39118255	     -1.75407068	     -8.97375684	     -7.49999987	     -6.27470251	      1.67258544	      3.29724564	     10.48366317	     -9.50176314	     -7.41450073	     22.80208811	     87.97222474	      9.42233926	     -5.37218955	     -3.98667380	     13.65626741	     95.95244696
     30.10000000	      5.44261547	      0.90787093	    175.13569873	      0.38145375	      0.90287362	      0.75520365	     28.31379328	     -1.57941836	      4.37925992	     81.76812096	      1.42712293	      1.44394917	    -15.08647688	     -7.49999987	     22.51820804	     -1.56269562	     -3.72617441	     23.19497009	      0.40482860	     -0.27965358	     -8.80689802	     -7.49999987	     -6.50056311	      1.20018650	      2.13792108	      9.71930710	     -8.73694819	     -7.71230277	     21.56991724	     87.12639637	      9.60858111	     -6.11668615	     -3.12065337	     14.90087200	     95.60663893
     30.11666670	      5.66068687	      0.49956014	    174.90422289	      0.38221561	      0.90625616	      0.75538777	     31.01425770	     -1.65674756	      4.62549111	     81.49043959	      1.42227648	      0.64986117	    -15.55552407	     -7.49999987	     21.28597707	     -1.16635246	     -3.50813673	     23.41315602	      0.40863666	      0.71971244	     -8.72392769	     -7.49999987	     -6.41423601	      0.70861431	      1.23338078	      8.77912012	     -7.99868314	     -8.05024662	     20.32621240	     86.61577461	     10.14085290	     -6.76071068	     -2.60983086	     15.57412242	     95.60274265
